<svg width="121" height="90" viewBox="0 0 121 90" fill="none" xmlns="http://www.w3.org/2000/svg">
<path d="M7.94169 63.248C9.70169 63.248 11.2457 63.592 12.5737 64.28C13.9177 64.968 14.9497 65.952 15.6697 67.232C16.4057 68.496 16.7737 69.968 16.7737 71.648C16.7737 73.328 16.4057 74.8 15.6697 76.064C14.9497 77.312 13.9177 78.28 12.5737 78.968C11.2457 79.656 9.70169 80 7.94169 80L2.08569 80L2.08569 63.248L7.94169 63.248ZM7.82169 77.144C9.58169 77.144 10.9417 76.664 11.9017 75.704C12.8617 74.744 13.3417 73.392 13.3417 71.648C13.3417 69.904 12.8617 68.544 11.9017 67.568C10.9417 66.576 9.58169 66.08 7.82169 66.08L5.44569 66.08L5.44569 77.144L7.82169 77.144ZM20.9928 65.12C20.4008 65.12 19.9048 64.936 19.5048 64.568C19.1208 64.184 18.9288 63.712 18.9288 63.152C18.9288 62.592 19.1208 62.128 19.5048 61.76C19.9048 61.376 20.4008 61.184 20.9928 61.184C21.5848 61.184 22.0728 61.376 22.4568 61.76C22.8568 62.128 23.0568 62.592 23.0568 63.152C23.0568 63.712 22.8568 64.184 22.4568 64.568C22.0728 64.936 21.5848 65.12 20.9928 65.12ZM22.6488 66.704L22.6488 80L19.2888 80L19.2888 66.704L22.6488 66.704ZM33.3365 66.512C34.9205 66.512 36.2005 67.016 37.1765 68.024C38.1525 69.016 38.6405 70.408 38.6405 72.2L38.6405 80L35.2805 80L35.2805 72.656C35.2805 71.6 35.0165 70.792 34.4885 70.232C33.9605 69.656 33.2405 69.368 32.3285 69.368C31.4005 69.368 30.6645 69.656 30.1205 70.232C29.5925 70.792 29.3285 71.6 29.3285 72.656L29.3285 80L25.9685 80L25.9685 66.704L29.3285 66.704L29.3285 68.36C29.7765 67.784 30.3445 67.336 31.0325 67.016C31.7365 66.68 32.5045 66.512 33.3365 66.512ZM54.1957 73.064C54.1957 73.544 54.1637 73.976 54.0997 74.36L44.3797 74.36C44.4597 75.32 44.7957 76.072 45.3877 76.616C45.9797 77.16 46.7077 77.432 47.5717 77.432C48.8197 77.432 49.7077 76.896 50.2357 75.824L53.8597 75.824C53.4757 77.104 52.7397 78.16 51.6517 78.992C50.5637 79.808 49.2277 80.216 47.6437 80.216C46.3637 80.216 45.2117 79.936 44.1877 79.376C43.1797 78.8 42.3877 77.992 41.8117 76.952C41.2517 75.912 40.9717 74.712 40.9717 73.352C40.9717 71.976 41.2517 70.768 41.8117 69.728C42.3717 68.688 43.1557 67.888 44.1637 67.328C45.1717 66.768 46.3317 66.488 47.6437 66.488C48.9077 66.488 50.0357 66.76 51.0277 67.304C52.0357 67.848 52.8117 68.624 53.3557 69.632C53.9157 70.624 54.1957 71.768 54.1957 73.064ZM50.7157 72.104C50.6997 71.24 50.3877 70.552 49.7797 70.04C49.1717 69.512 48.4277 69.248 47.5477 69.248C46.7157 69.248 46.0117 69.504 45.4357 70.016C44.8757 70.512 44.5317 71.208 44.4037 72.104L50.7157 72.104ZM61.5509 71.6C61.5509 69.952 61.9189 68.48 62.6549 67.184C63.4069 65.872 64.4229 64.856 65.7029 64.136C66.9989 63.4 68.4469 63.032 70.0469 63.032C71.9189 63.032 73.5589 63.512 74.9669 64.472C76.3749 65.432 77.3589 66.76 77.9189 68.456L74.0549 68.456C73.6709 67.656 73.1269 67.056 72.4229 66.656C71.7349 66.256 70.9349 66.056 70.0229 66.056C69.0469 66.056 68.1749 66.288 67.4069 66.752C66.6549 67.2 66.0629 67.84 65.6309 68.672C65.2149 69.504 65.0069 70.48 65.0069 71.6C65.0069 72.704 65.2149 73.68 65.6309 74.528C66.0629 75.36 66.6549 76.008 67.4069 76.472C68.1749 76.92 69.0469 77.144 70.0229 77.144C70.9349 77.144 71.7349 76.944 72.4229 76.544C73.1269 76.128 73.6709 75.52 74.0549 74.72L77.9189 74.72C77.3589 76.432 76.3749 77.768 74.9669 78.728C73.5749 79.672 71.9349 80.144 70.0469 80.144C68.4469 80.144 66.9989 79.784 65.7029 79.064C64.4229 78.328 63.4069 77.312 62.6549 76.016C61.9189 74.72 61.5509 73.248 61.5509 71.6ZM88.2768 66.512C89.2848 66.512 90.1808 66.736 90.9648 67.184C91.7488 67.616 92.3568 68.264 92.7888 69.128C93.2368 69.976 93.4608 71 93.4608 72.2L93.4608 80L90.1008 80L90.1008 72.656C90.1008 71.6 89.8368 70.792 89.3088 70.232C88.7808 69.656 88.0608 69.368 87.1488 69.368C86.2208 69.368 85.4848 69.656 84.9408 70.232C84.4128 70.792 84.1488 71.6 84.1488 72.656L84.1488 80L80.7888 80L80.7888 62.24L84.1488 62.24L84.1488 68.36C84.5808 67.784 85.1568 67.336 85.8768 67.016C86.5968 66.68 87.3968 66.512 88.2768 66.512ZM95.792 73.304C95.792 71.96 96.056 70.768 96.584 69.728C97.128 68.688 97.856 67.888 98.768 67.328C99.696 66.768 100.728 66.488 101.864 66.488C102.856 66.488 103.72 66.688 104.456 67.088C105.208 67.488 105.808 67.992 106.256 68.6L106.256 66.704L109.64 66.704L109.64 80L106.256 80L106.256 78.056C105.824 78.68 105.224 79.2 104.456 79.616C103.704 80.016 102.832 80.216 101.84 80.216C100.72 80.216 99.696 79.928 98.768 79.352C97.856 78.776 97.128 77.968 96.584 76.928C96.056 75.872 95.792 74.664 95.792 73.304ZM106.256 73.352C106.256 72.536 106.096 71.84 105.776 71.264C105.456 70.672 105.024 70.224 104.48 69.92C103.936 69.6 103.352 69.44 102.728 69.44C102.104 69.44 101.528 69.592 101 69.896C100.472 70.2 100.04 70.648 99.704 71.24C99.384 71.816 99.224 72.504 99.224 73.304C99.224 74.104 99.384 74.808 99.704 75.416C100.04 76.008 100.472 76.464 101 76.784C101.544 77.104 102.12 77.264 102.728 77.264C103.352 77.264 103.936 77.112 104.48 76.808C105.024 76.488 105.456 76.04 105.776 75.464C106.096 74.872 106.256 74.168 106.256 73.352ZM116.834 69.464L116.834 75.896C116.834 76.344 116.938 76.672 117.146 76.88C117.37 77.072 117.738 77.168 118.25 77.168L119.81 77.168L119.81 80L117.698 80C114.866 80 113.45 78.624 113.45 75.872L113.45 69.464L111.866 69.464L111.866 66.704L113.45 66.704L113.45 63.416L116.834 63.416L116.834 66.704L119.81 66.704L119.81 69.464L116.834 69.464Z" fill="white"/>
<path fill-rule="evenodd" clip-rule="evenodd" d="M80.5381 43.4938C81.9133 43.3886 83.6913 43.141 85.6794 42.5619C87.6861 41.9773 89.2201 41.2548 90.1977 40.7376C90.8096 40.4141 91.5692 39.977 92.4034 39.4058C93.0645 38.9534 93.7717 38.4167 94.4895 37.7854C98.2715 34.4595 100.421 30.2257 100.942 25.8664C101.019 24.7194 98.2752 24.6142 98.1635 25.8664C97.6543 29.5996 95.7784 33.2156 92.5331 36.0682C89.1909 39.0074 84.923 40.6701 80.5387 41.0574C79.1804 41.1049 79.1725 43.4771 80.5387 43.4943L80.5381 43.4938ZM76.3898 43.5008C71.13 43.053 66.437 41.0165 62.8863 37.9791C62.0759 37.3241 64.0826 35.6223 64.9739 36.3773C68.0498 38.9534 72.0785 40.6771 76.5783 41.0779C78.2996 41.1999 77.8211 43.8271 76.3893 43.5013L76.3898 43.5008ZM57.3332 9.29926C53.493 6.10734 48.6613 4.33239 43.7254 3.97442C42.6334 3.86736 42.4942 6.31774 43.7254 6.4113C47.9552 6.76089 52.0765 8.29657 55.3763 11.0183C56.6149 12.0806 58.5485 10.0375 57.3332 9.29926ZM39.8703 3.9828C34.7761 4.37289 29.8016 6.27538 25.9195 9.69121C22.1375 13.0172 19.9879 17.2509 19.4671 21.6103C19.3861 22.7559 22.1338 22.8611 22.2418 21.6103C22.751 17.8751 24.6269 14.261 27.8722 11.4084C31.218 8.46741 35.4865 6.80652 39.8703 6.42108C41.2249 6.36848 41.2365 3.99956 39.8703 3.9828ZM19.5322 26.3095C19.3009 24.7347 21.902 24.0509 22.2413 25.8003C22.7505 29.5354 24.6264 33.1495 27.8717 36.0007C35.5632 42.7681 48.1442 42.7681 55.8352 36.0007L63.9783 28.8413L63.9899 28.8292L63.2875 28.2115L60.1883 25.4898L58.2357 23.7707L54.4304 20.4242L50.1122 16.6281C45.6548 12.7062 38.33 12.7062 33.8726 16.6281C29.349 20.6081 29.6428 27.0734 33.8726 30.9128C37.8626 34.5349 44.5072 35.0502 49.351 31.9788C49.7125 31.7777 50.0825 31.6125 50.199 31.7102C50.3747 31.8587 49.8279 32.4899 49.9957 32.6347C50.0841 32.711 50.3715 32.6519 51.1486 32.1874C45.6712 36.8135 37.1321 36.8647 31.9162 32.6319C26.1725 27.9713 26.4388 19.7246 31.9162 14.909C37.454 10.0403 46.5308 10.0403 52.0691 14.909L54.4118 16.9725L54.4775 16.9181L55.5001 16.0187L62.6163 9.75684C62.755 9.63814 62.8863 9.52083 63.0255 9.40725L63.0329 9.40027L63.0409 9.39515C63.1721 9.28296 63.3071 9.17451 63.4421 9.06744L63.4574 9.0558L63.4728 9.0437L63.4881 9.0302C72.3103 2.05051 86.0028 2.29164 94.4889 9.75638C98.1206 12.9534 100.251 16.987 100.872 21.1648C101.108 22.7396 98.5065 23.4234 98.1629 21.6755C97.6537 17.9403 95.7778 14.3262 92.5326 11.4736C84.841 4.70805 72.2643 4.70805 64.569 11.4736L56.4302 18.6348L56.3645 18.6907L60.1889 22.0525L62.1452 23.7697L65.1476 26.4101L70.265 30.9119C74.7262 34.8351 82.0509 34.8351 86.5121 30.9119C91.195 26.7936 90.4566 20.2254 86.5121 16.6271C82.3129 12.797 75.6885 13.4324 72.0499 14.909C71.3507 15.1925 70.7891 15.496 70.3767 15.7441C70.3455 15.7562 70.2899 15.7748 70.2185 15.7836C69.7082 15.8479 69.0614 15.3298 69.1561 14.9886C69.1715 14.9332 69.2207 14.8289 69.4277 14.7302C75.066 10.4695 83.3827 10.6618 88.4652 14.9085C94.0814 19.6012 93.9908 27.7754 88.4652 32.6314C82.9232 37.5015 73.8464 37.5015 68.3124 32.6314L65.9426 30.5474L65.931 30.5576L57.7879 37.7189C49.0159 45.435 34.6904 45.435 25.9185 37.7189C22.2831 34.5218 20.1568 30.4864 19.5311 26.3086L19.5322 26.3095ZM105.307 17.7737C104.81 13.2979 102.601 8.94501 98.6812 5.56037C94.8626 2.2665 90.0278 0.417081 85.0659 0.000925476C83.7612 -0.0558653 83.6675 2.35821 85.0929 2.44433C89.3429 2.85629 93.4726 4.47064 96.7475 7.29762C100.121 10.2084 102.054 13.9454 102.536 17.7974C102.603 18.9914 105.301 18.9756 105.307 17.7741L105.307 17.7737Z" fill="white"/>
<path d="M71.5113 13.6318C69.5391 14.7993 68.6651 15.0609 68.2692 15.0064C68.2316 15.0013 68.0638 14.9752 67.833 14.979C67.4747 14.9845 67.1201 15.0599 66.7935 15.2015C65.9704 15.4007 63.41 17.7701 60.8799 20.3033L66.3578 16.186C66.6595 16.2609 66.8781 16.4993 66.903 16.7823L61.3965 21.4135L67.4371 17.3665C67.7394 17.4414 67.9574 17.6798 67.9829 17.9628L62.5049 22.0801C65.7195 20.2954 68.7625 18.4534 69.1309 17.757C69.4316 17.3851 69.6005 16.9392 69.6158 16.4788C69.6661 16.024 72.3148 14.2472 75.0387 12.9652C76.2657 12.388 76.2233 12.0631 76.1863 11.9988C76.0582 11.78 74.4072 12.3251 74.2161 12.3889C73.0495 12.7781 72.1433 13.2515 71.5108 13.6309L71.5113 13.6318Z" fill="white"/>
<path fill-rule="evenodd" clip-rule="evenodd" d="M47.3805 34.5056C51.5023 32.0841 55.6247 29.663 59.7465 27.2415C58.8016 26.8049 58.0124 26.7136 57.4958 26.7048C55.3049 26.6675 53.6492 28.0412 52.1248 29.3055C51.245 30.035 50.6141 30.7183 50.2055 31.201C48.3062 32.8205 47.1095 33.3037 46.3568 33.4336C46.2234 33.4564 45.3161 33.6049 44.6677 34.2049C44.4793 34.3795 44.294 34.6089 44.366 34.6941C44.4692 34.8156 44.9324 34.6546 45.5173 34.5554C45.9487 34.4823 46.5754 34.4227 47.3805 34.5065L47.3805 34.5056Z" fill="white"/>
<path fill-rule="evenodd" clip-rule="evenodd" d="M34.0822 0.224426C29.0108 0.802576 24.1336 2.88149 20.4103 6.43371C16.7877 9.89376 14.8382 14.202 14.5216 18.5767C14.4983 19.7256 17.245 19.7311 17.2979 18.4762C17.6319 14.7275 19.3369 11.0463 22.4456 8.07879C25.6469 5.02093 29.8339 3.20502 34.196 2.65945C35.5511 2.56263 35.4473 0.192307 34.0817 0.224892L34.0822 0.224426Z" fill="white"/>
<path fill-rule="evenodd" clip-rule="evenodd" d="M94.6808 44.5142L93.1437 38.709L87.8081 41.6514L94.6808 44.5142Z" fill="white"/>
</svg>
